<?xml version="1.0" encoding="UTF-8"?>
<svg version="1.1" xmlns="http://www.w3.org/2000/svg" width="636" height="634">
<path d="M0 0 C0.68255859 0.16048828 1.36511719 0.32097656 2.06835938 0.48632812 C9.21644672 2.20429445 16.18642543 4.22837645 23 7 C24.12728516 7.42732422 24.12728516 7.42732422 25.27734375 7.86328125 C32.0771432 10.4736308 38.52938026 13.664629 45 17 C45 17.66 45 18.32 45 19 C47.65228812 20.07525194 50.28368454 21.09456151 53 22 C54.6875 23.4375 54.6875 23.4375 56 25 C56 25.66 56 26.32 56 27 C57.98 27.66 59.96 28.32 62 29 C62 29.66 62 30.32 62 31 C62.99 31.33 63.98 31.66 65 32 C65 32.66 65 33.32 65 34 C65.5775 34.2475 66.155 34.495 66.75 34.75 C69.32939979 36.18299988 71.06121592 37.78424676 73 40 C73 40.66 73 41.32 73 42 C73.99 42.33 74.98 42.66 76 43 C77.6875 44.4375 77.6875 44.4375 79 46 C79 46.66 79 47.32 79 48 C79.99 48.33 80.98 48.66 82 49 C83.46484375 50.671875 83.46484375 50.671875 84.9375 52.75 C86.49595439 54.92768027 88.03794256 57.04462848 89.7734375 59.0859375 C93.11513034 63.45945129 95.87050343 68.15192934 98.6875 72.875 C99.28111328 73.84308594 99.87472656 74.81117188 100.48632812 75.80859375 C103.5993132 81.02648208 105.56738354 84.94336961 106 91 C106.78263875 93.18380884 106.78263875 93.18380884 107.8125 95.125 C121.54558301 124.92977073 120.33838981 163.19616412 109.36376953 193.625 C107.06741426 199.82285925 104.64343627 205.94179043 102 212 C101.34 212 100.68 212 100 212 C100 213.65 100 215.3 100 217 C99.34 217 98.68 217 98 217 C97.81824219 217.61488281 97.63648438 218.22976563 97.44921875 218.86328125 C97.19785156 219.67152344 96.94648438 220.47976563 96.6875 221.3125 C96.44386719 222.11300781 96.20023437 222.91351563 95.94921875 223.73828125 C94.94706539 226.12612815 93.85820015 227.24669825 92 229 C91.690625 229.86625 91.38125 230.7325 91.0625 231.625 C90.711875 232.40875 90.36125 233.1925 90 234 C89.01 234.2165625 89.01 234.2165625 88 234.4375 C87.34 234.623125 86.68 234.80875 86 235 C84.6954344 237.99615946 84.6954344 237.99615946 84 241 C83.34 241 82.68 241 82 241 C81.67 241.99 81.34 242.98 81 244 C80.34 244 79.68 244 79 244 C78.67 244.99 78.34 245.98 78 247 C77.34 247 76.68 247 76 247 C75.95875 247.556875 75.9175 248.11375 75.875 248.6875 C74.51022892 252.294395 72.08919824 253.73038496 69 256 C68.34 256 67.68 256 67 256 C66.67 256.99 66.34 257.98 66 259 C65.34 259 64.68 259 64 259 C64 259.66 64 260.32 64 261 C63.34 261 62.68 261 62 261 C61.67 261.99 61.34 262.98 61 264 C59.07421875 265.24609375 59.07421875 265.24609375 56.6875 266.4375 C54.09920783 267.73378517 52.19640889 268.795381 50.18359375 270.89233398 C47.83883388 273.15556207 45.59375835 274.54065855 42.73828125 276.1015625 C41.71009277 276.66915283 40.6819043 277.23674316 39.62255859 277.8215332 C37.98407959 278.71424927 37.98407959 278.71424927 36.3125 279.625 C34.03960239 280.88013116 31.76746861 282.13664652 29.49609375 283.39453125 C28.38476074 284.00893066 27.27342773 284.62333008 26.12841797 285.25634766 C22.0098156 287.55188832 17.93369186 289.91297629 13.875 292.3125 C13.20927979 292.7036499 12.54355957 293.0947998 11.85766602 293.49780273 C8.47251197 295.49692263 5.12490924 297.54311857 1.8046875 299.6484375 C1.12293457 300.07471436 0.44118164 300.50099121 -0.26123047 300.94018555 C-1.54699635 301.74659088 -2.82532496 302.56503321 -4.09423828 303.39770508 C-6.67246631 305.00773624 -8.42486108 306.02833969 -11.50708008 305.87646484 C-14.76672061 304.73043512 -15.39392992 303.48987026 -17.05859375 300.49609375 C-17.60306152 299.53864258 -18.1475293 298.58119141 -18.70849609 297.59472656 C-19.27906738 296.5528418 -19.84963867 295.51095703 -20.4375 294.4375 C-21.66714803 292.25344397 -22.89764281 290.0698645 -24.12890625 287.88671875 C-24.76070801 286.75540527 -25.39250977 285.6240918 -26.04345703 284.45849609 C-27.99288759 281.0125723 -29.99753058 277.60614328 -32.02734375 274.20703125 C-32.67195557 273.12429932 -33.31656738 272.04156738 -33.98071289 270.92602539 C-35.22629432 268.83764173 -36.4766518 266.75209797 -37.73217773 264.66967773 C-38.29235596 263.72165283 -38.85253418 262.77362793 -39.4296875 261.796875 C-39.92710449 260.96510742 -40.42452148 260.13333984 -40.93701172 259.27636719 C-42 257 -42 257 -42 253 C-39.35808104 251.47581599 -36.71615814 249.95163882 -34.07421875 248.42749023 C-31.75123713 247.08727059 -29.42831082 245.74695558 -27.10546875 244.40649414 C-21.60411726 241.23195982 -16.10237871 238.05811236 -10.5977478 234.88926697 C-8.85195174 233.88421933 -7.10636549 232.87880822 -5.36083984 231.87329102 C-3.17668202 230.61525038 -0.99213332 229.35788803 1.19287109 228.10131836 C6.85990802 224.83605152 12.48115656 221.51700086 18.0390625 218.06860352 C20 217 20 217 22 217 C22.33 216.01 22.66 215.02 23 214 C23.66 214 24.32 214 25 214 C25.33 213.01 25.66 212.02 26 211 C26.66 211 27.32 211 28 211 C28.09539062 210.38898438 28.19078125 209.77796875 28.2890625 209.1484375 C29.16474317 206.50214975 30.0182974 206.02708889 32.375 204.625 C35.91724602 202.29017254 37.4202437 199.99585417 39 196 C39.66 196 40.32 196 41 196 C41.3403125 194.7934375 41.3403125 194.7934375 41.6875 193.5625 C42.76296018 190.64339379 43.90004799 188.29701751 45.4375 185.625 C49.1317434 179.16279842 52 172.52289614 52 165 C52.66 165 53.32 165 54 165 C53.979375 164.030625 53.95875 163.06125 53.9375 162.0625 C53.93190757 159.26628451 54.14085169 156.58451794 54.5 153.8125 C55.89593024 144.17719904 55.89593024 144.17719904 54 135 C54.01546875 134.12472656 54.0309375 133.24945313 54.046875 132.34765625 C53.88758132 120.97143269 48.50026015 110.35993735 43 100.6875 C42.48985352 99.78636475 41.97970703 98.88522949 41.45410156 97.95678711 C38.75438924 93.38179168 36.38420368 90.135028 32 87 C32 86.34 32 85.68 32 85 C31.01 84.67 30.02 84.34 29 84 C29 83.34 29 82.68 29 82 C28.01 81.67 27.02 81.34 26 81 C26 80.34 26 79.68 26 79 C25.443125 78.731875 24.88625 78.46375 24.3125 78.1875 C21.78774666 76.89100504 19.36285516 75.57523677 17 74 C17 73.34 17 72.68 17 72 C16.21625 71.773125 15.4325 71.54625 14.625 71.3125 C11.67234875 70.24343662 9.13986004 69.07432179 6.375 67.625 C-13.42375224 57.59244841 -37.67136268 55.90251898 -59 62 C-60.69192274 62.95664791 -62.35905287 63.95833293 -64 65 C-65.63671871 65.68317011 -67.27348501 66.36622679 -68.91064453 67.04833984 C-73.57030262 69.17072209 -77.98358812 71.79457632 -82.4375 74.3125 C-83.52482422 74.92407959 -84.61214844 75.53565918 -85.73242188 76.16577148 C-94.51836259 81.12400446 -103.24566658 86.18054626 -111.94311523 91.29223633 C-113.76763927 92.36422553 -115.59505113 93.43132002 -117.42578125 94.49267578 C-119.14511093 95.49942288 -120.85108998 96.52931652 -122.54296875 97.58154297 C-123.72826172 98.29721436 -123.72826172 98.29721436 -124.9375 99.02734375 C-125.62714844 99.456521 -126.31679687 99.88569824 -127.02734375 100.32788086 C-129 101 -129 101 -131.06884766 100.41088867 C-133.46050808 98.66355548 -134.50256932 96.97635109 -135.9609375 94.3984375 C-136.5087085 93.44420898 -137.05647949 92.48998047 -137.62084961 91.50683594 C-138.19971924 90.47333008 -138.77858887 89.43982422 -139.375 88.375 C-140.61249744 86.20007467 -141.85080364 84.02560935 -143.08984375 81.8515625 C-143.72776855 80.7265332 -144.36569336 79.60150391 -145.02294922 78.44238281 C-146.99662139 75.00588274 -149.02108689 71.60521358 -151.06640625 68.2109375 C-151.71496582 67.1276416 -152.36352539 66.0443457 -153.03173828 64.92822266 C-154.28583352 62.83677866 -155.54832316 60.75034155 -156.81982422 58.66943359 C-157.38330566 57.72148926 -157.94678711 56.77354492 -158.52734375 55.796875 C-159.02999756 54.96510742 -159.53265137 54.13333984 -160.05053711 53.27636719 C-161 51 -161 51 -160.94970703 48.88525391 C-159.59219547 46.19047131 -157.9241819 45.45707145 -155.27734375 44.0390625 C-154.27550049 43.4920166 -153.27365723 42.9449707 -152.24145508 42.38134766 C-151.1511499 41.80175293 -150.06084473 41.2221582 -148.9375 40.625 C-146.64733573 39.37701973 -144.35830146 38.12696392 -142.0703125 36.875 C-141.48399551 36.55600739 -140.89767853 36.23701477 -140.29359436 35.90835571 C-134.22876252 32.60211741 -128.26707181 29.12539337 -122.3125 25.625 C-120.33342975 24.46598118 -118.3542664 23.30712131 -116.375 22.1484375 C-115.4571875 21.61057617 -114.539375 21.07271484 -113.59375 20.51855469 C-110.00620726 18.41816728 -106.41424078 16.32594543 -102.8125 14.25 C-101.78769531 13.65703125 -100.76289063 13.0640625 -99.70703125 12.453125 C-97.17306035 11.0928982 -94.66974918 10.0599893 -92 9 C-90.76481782 8.35165892 -89.53196466 7.69887163 -88.30078125 7.04296875 C-83.75797322 4.74223221 -79.11814072 3.50955641 -74.1875 2.3125 C-72.51416147 1.89256989 -70.84097749 1.47202332 -69.16796875 1.05078125 C-68.43860107 0.87200439 -67.7092334 0.69322754 -66.95776367 0.5090332 C-65.28590639 0.0743378 -63.6387984 -0.45373387 -62 -1 C-42.0878431 -5.17120106 -19.75823535 -4.70992554 0 0 Z " fill="#FCB61A" transform="translate(373,92)"/>
<path d="M0 0 C0.57947388 1.00861084 0.57947388 1.00861084 1.1706543 2.03759766 C2.6694453 4.6448257 4.16965898 7.25123022 5.67041016 9.85733032 C6.6879012 11.62569728 7.70334827 13.39522764 8.71875 15.16479492 C12.05524285 20.9685045 15.42805308 26.74043621 18.92578125 32.44921875 C19.5288208 33.44034668 20.13186035 34.43147461 20.75317383 35.45263672 C21.89842616 37.32761726 23.05545121 39.19546856 24.2253418 41.05517578 C24.7387915 41.89935059 25.25224121 42.74352539 25.78125 43.61328125 C26.23564453 44.34329346 26.69003906 45.07330566 27.15820312 45.82543945 C28.27663083 48.71460289 28.11907178 50.11845534 27 53 C24.91235352 54.70654297 24.91235352 54.70654297 22.12890625 56.2421875 C21.0917749 56.82621338 20.05464355 57.41023926 18.98608398 58.01196289 C17.85630127 58.62676514 16.72651855 59.24156738 15.5625 59.875 C14.39360793 60.5274187 13.22573308 61.18166292 12.05883789 61.83764648 C9.61904968 63.20715876 7.17500897 64.56858247 4.72753906 65.92431641 C-1.24031101 69.2376016 -7.14914552 72.65326794 -13.0625 76.0625 C-14.12460693 76.66884277 -15.18671387 77.27518555 -16.28100586 77.89990234 C-28.24711855 84.22326719 -28.24711855 84.22326719 -37 94 C-38.98356483 94.71408334 -40.98315437 95.38617742 -43 96 C-43.495 97.485 -43.495 97.485 -44 99 C-44.78375 99.61875 -45.5675 100.2375 -46.375 100.875 C-49.08516157 103.06894032 -50.33164446 104.98107093 -52 108 C-52.66 108.66 -53.32 109.32 -54 110 C-54.6425235 112.06874034 -54.6425235 112.06874034 -55 114 C-55.66 114 -56.32 114 -57 114 C-57.226875 114.78375 -57.45375 115.5675 -57.6875 116.375 C-58.7491034 119.30704748 -59.88895477 121.66811147 -61.375 124.375 C-67.3377072 136.15928524 -68.72642124 148.97765098 -69 162 C-69.03222656 163.30582031 -69.06445312 164.61164063 -69.09765625 165.95703125 C-69.08043259 170.13224902 -68.47463224 174.09519555 -67.6875 178.1875 C-67.56955078 178.87263672 -67.45160156 179.55777344 -67.33007812 180.26367188 C-66.54036791 184.4714099 -65.26048559 187.41113028 -63 191 C-62.51261371 192.26498118 -62.04972406 193.5395471 -61.60546875 194.8203125 C-60.03004372 199.19615059 -57.78960205 202.9558848 -55.3125 206.875 C-51 213.74825581 -51 213.74825581 -51 216 C-50.01 216.33 -49.02 216.66 -48 217 C-47.66666667 218.33333333 -47.33333333 219.66666667 -47 221 C-46.01 221.33 -45.02 221.66 -44 222 C-44 222.66 -44 223.32 -44 224 C-43.0409375 224.1546875 -43.0409375 224.1546875 -42.0625 224.3125 C-41.0415625 224.6528125 -41.0415625 224.6528125 -40 225 C-39.67 225.99 -39.34 226.98 -39 228 C-37.19010807 229.04627862 -37.19010807 229.04627862 -35 230 C-33.36822416 231.07310005 -31.74391833 232.15759918 -30.125 233.25 C-9.27783104 246.57442224 14.63110367 250.24164559 38.59765625 245.484375 C42.21713318 244.6454682 45.56591407 243.39071388 49 242 C49.75539062 241.72003174 50.51078125 241.44006348 51.2890625 241.15161133 C57.95047646 238.63617564 63.90427532 235.34513969 70 231.6875 C72.09981031 230.44455179 74.20008852 229.20239376 76.30078125 227.9609375 C77.3882666 227.31608398 78.47575195 226.67123047 79.59619141 226.00683594 C85.4345251 222.56463948 91.31207678 219.19086835 97.1875 215.8125 C99.34790704 214.56944618 101.5080802 213.32598575 103.66796875 212.08203125 C104.57828857 211.55843018 105.4886084 211.0348291 106.42651367 210.49536133 C108.17382101 209.48006321 109.89291869 208.41493193 111.58325195 207.30737305 C114 206 114 206 118 206 C118 206.66 118 207.32 118 208 C118.66 208 119.32 208 120 208 C129.03948727 223.64426491 138.05340397 239.3023537 147 255 C142.30495182 263.57169347 132.96344809 267.19361321 124.66113281 271.74902344 C117.77282223 275.53717304 110.97364599 279.46963012 104.1875 283.4375 C103.1555249 284.04078125 102.1235498 284.6440625 101.06030273 285.265625 C95.70125759 288.39996984 95.70125759 288.39996984 90.38012695 291.59790039 C85.06432641 294.72936439 79.12462205 296.7661027 73.3984375 299.02734375 C71.45066903 299.81723683 69.53235061 300.67946731 67.625 301.5625 C59.55365957 304.76320397 51.0527907 306.27487631 42.49609375 307.5703125 C39.88106554 307.95592201 39.88106554 307.95592201 37 309 C10.74064704 311.76267369 -15.45586069 307.64234045 -40 298 C-41.99640639 297.32264783 -43.99504414 296.65161065 -46 296 C-46 295.34 -46 294.68 -46 294 C-46.70125 293.896875 -47.4025 293.79375 -48.125 293.6875 C-51.39137647 292.90640997 -54.0471852 291.57941257 -57 290 C-57 289.34 -57 288.68 -57 288 C-58.98 287.34 -60.96 286.68 -63 286 C-63 285.34 -63 284.68 -63 284 C-63.556875 283.9175 -64.11375 283.835 -64.6875 283.75 C-67.69256318 282.77538491 -69.57254822 280.99175531 -72 279 C-72.99 278.67 -73.98 278.34 -75 278 C-76.6875 276.5625 -76.6875 276.5625 -78 275 C-78 274.34 -78 273.68 -78 273 C-79.32 272.67 -80.64 272.34 -82 272 C-82 271.34 -82 270.68 -82 270 C-82.99 269.67 -83.98 269.34 -85 269 C-86.71875 267.2578125 -86.71875 267.2578125 -88.5 265.125 C-90.92792373 262.22973481 -90.92792373 262.22973481 -93.5234375 259.48828125 C-95.21800156 257.78026827 -96.66458929 255.97424366 -98.125 254.0625 C-98.64320312 253.39347656 -99.16140625 252.72445312 -99.6953125 252.03515625 C-101 250 -101 250 -101.4921875 247.80859375 C-101.65976563 247.21175781 -101.82734375 246.61492187 -102 246 C-102.99 245.67 -103.98 245.34 -105 245 C-106.41040039 243.03808594 -106.41040039 243.03808594 -107.84765625 240.484375 C-108.37037109 239.56269531 -108.89308594 238.64101562 -109.43164062 237.69140625 C-109.96982422 236.72074219 -110.50800781 235.75007812 -111.0625 234.75 C-111.60455078 233.79480469 -112.14660156 232.83960938 -112.70507812 231.85546875 C-115.08320054 227.62834881 -117.212289 223.51024094 -119 219 C-119.72316406 217.88625 -119.72316406 217.88625 -120.4609375 216.75 C-122.56070644 212.9981286 -123.53604661 209.14071165 -124.625 205 C-124.8415625 204.2059375 -125.058125 203.411875 -125.28125 202.59375 C-126.31969739 198.74764855 -127.27763491 194.9196158 -128 191 C-128.24878906 189.7625 -128.49757812 188.525 -128.75390625 187.25 C-130.30573094 179.21396754 -131.31676218 171.66976618 -131.0078125 163.44140625 C-130.81683483 160.99126913 -130.81683483 160.99126913 -132 159 C-131.77677165 157.1503937 -131.55044277 155.30021466 -131.25390625 153.4609375 C-130.93002324 150.7879491 -130.93002324 150.7879491 -131.05078125 147.234375 C-131.07993966 142.98713126 -130.45750163 139.02950334 -129.625 134.875 C-129.49867188 134.19824219 -129.37234375 133.52148438 -129.2421875 132.82421875 C-128.45470882 128.752954 -127.33742075 124.91922428 -126 121 C-126 120.34 -126 119.68 -126 119 C-125.34 119 -124.68 119 -124 119 C-123.855625 117.7625 -123.71125 116.525 -123.5625 115.25 C-123.21311498 112.43495501 -122.79620634 109.7298503 -122 107 C-121.34 107 -120.68 107 -120 107 C-119.9071875 105.576875 -119.9071875 105.576875 -119.8125 104.125 C-119.09071746 98.91330547 -116.46027991 94.57566078 -114 90 C-113.32881742 88.6689342 -112.66051526 87.33639134 -112 86 C-111.34 86 -110.68 86 -110 86 C-109.814375 84.88625 -109.814375 84.88625 -109.625 83.75 C-109.03879534 81.17069951 -108.36715445 79.2517838 -107 77 C-106.01 76.505 -106.01 76.505 -105 76 C-104.71125 75.175 -104.4225 74.35 -104.125 73.5 C-103.75375 72.675 -103.3825 71.85 -103 71 C-102.01 70.7834375 -102.01 70.7834375 -101 70.5625 C-100.34 70.376875 -99.68 70.19125 -99 70 C-97.6954344 67.00384054 -97.6954344 67.00384054 -97 64 C-96.34 64 -95.68 64 -95 64 C-94.67 63.01 -94.34 62.02 -94 61 C-93.34 61 -92.68 61 -92 61 C-91.67 60.01 -91.34 59.02 -91 58 C-90.34 58 -89.68 58 -89 58 C-88.34 56.35 -87.68 54.7 -87 53 C-86.34 53 -85.68 53 -85 53 C-84.67 52.01 -84.34 51.02 -84 50 C-82 49.33333333 -80 48.66666667 -78 48 C-77.67 47.01 -77.34 46.02 -77 45 C-76.34 45 -75.68 45 -75 45 C-74.67 44.01 -74.34 43.02 -74 42 C-67.61329857 36.54266195 -59.94352697 32.52632316 -52.64859009 28.43276978 C-49.57387713 26.70736045 -46.50841242 24.9656215 -43.44140625 23.2265625 C-42.50934608 22.69900108 -42.50934608 22.69900108 -41.55845642 22.16078186 C-34.29862071 18.04686117 -27.10012036 13.82914673 -19.90380859 9.60522461 C-17.27297766 8.06355116 -14.63770397 6.52987848 -12 5 C-11.15356934 4.50419434 -10.30713867 4.00838867 -9.43505859 3.49755859 C-8.63535645 3.03816895 -7.8356543 2.5787793 -7.01171875 2.10546875 C-6.30877686 1.6983667 -5.60583496 1.29126465 -4.8815918 0.87182617 C-3 0 -3 0 0 0 Z " fill="#FD9F1A" transform="translate(132,0)"/>
<path d="M0 0 C0.35078613 0.63164062 0.70157227 1.26328125 1.06298828 1.9140625 C2.74776151 4.9441438 4.43578686 7.9723915 6.125 11 C6.74721436 12.11528076 7.36942871 13.23056152 8.01049805 14.37963867 C13.09379574 23.4566372 18.31262256 32.44607434 23.64306641 41.38085938 C24.2004248 42.32380859 24.7577832 43.26675781 25.33203125 44.23828125 C26.07030151 45.4763855 26.07030151 45.4763855 26.82348633 46.73950195 C27.92155482 48.84927913 28.54509773 50.6761659 29 53 C27.40885417 53.91796875 25.81770833 54.8359375 24.2265625 55.75390625 C23.18604736 56.35420654 22.14553223 56.95450684 21.07348633 57.57299805 C18.75302188 58.91172122 16.43254828 60.25042851 14.11206055 61.58911133 C8.58129767 64.77982233 3.05060704 67.97065811 -2.47961426 71.16230774 C-4.24826475 72.18303909 -6.01694954 73.20371098 -7.78564453 74.22436523 C-10.00934535 75.50761328 -12.23298093 76.79097439 -14.45654297 78.07446289 C-15.47506348 78.66219482 -16.49358398 79.24992676 -17.54296875 79.85546875 C-18.48930176 80.40203125 -19.43563477 80.94859375 -20.41064453 81.51171875 C-22.64335522 82.79501164 -24.88441272 84.06172713 -27.12890625 85.32421875 C-29.56534015 86.74630058 -31.13352648 87.94687913 -33 90 C-33.99 90.66 -34.98 91.32 -36 92 C-36.495 93.485 -36.495 93.485 -37 95 C-37.598125 95.28875 -38.19625 95.5775 -38.8125 95.875 C-41.69152822 97.35564308 -43.03316291 99.46214569 -45 102 C-45.99 102.66 -46.98 103.32 -48 104 C-48.33 104.680625 -48.66 105.36125 -49 106.0625 C-50 108 -50 108 -53 109 C-54.17082878 111.92914165 -54.17082878 111.92914165 -55 115 C-55.33 115.66 -55.66 116.32 -56 117 C-56.66 117 -57.32 117 -58 117 C-59.79425101 122.29304048 -61.52179175 127.60249136 -63.1875 132.9375 C-63.70376953 134.59072266 -63.70376953 134.59072266 -64.23046875 136.27734375 C-65.0906616 138.84921433 -65.0906616 138.84921433 -65 141 C-65.66 141 -66.32 141 -67 141 C-67.16972432 144.97904231 -67.33521853 148.95825017 -67.5 152.9375 C-67.54769531 154.05447266 -67.59539062 155.17144531 -67.64453125 156.32226562 C-67.77696028 159.54785841 -67.8934221 162.77345667 -68 166 C-68.03351563 166.89734863 -68.06703125 167.79469727 -68.1015625 168.71923828 C-68.22583359 173.65290308 -68.22583359 173.65290308 -66 178 C-65.67320816 179.446822 -65.40919648 180.90839253 -65.1875 182.375 C-63.4765205 191.57656691 -59.79243431 200.01260948 -55 208 C-55 208.66 -55 209.32 -55 210 C-54.01 210.33 -53.02 210.66 -52 211 C-49 215.33333333 -49 215.33333333 -49 218 C-48.01 218.33 -47.02 218.66 -46 219 C-46 219.66 -46 220.32 -46 221 C-44.9171875 221.3403125 -44.9171875 221.3403125 -43.8125 221.6875 C-40.43567583 223.26335128 -38.44232961 225.20876616 -36 228 C-36 228.66 -36 229.32 -36 230 C-35.2575 230.268125 -34.515 230.53625 -33.75 230.8125 C-31.10938051 231.95276751 -29.14447156 233.09380306 -27 235 C-27 235.66 -27 236.32 -27 237 C-26.30777344 237.11472656 -25.61554688 237.22945312 -24.90234375 237.34765625 C-21.62874745 238.08344438 -18.68048049 239.19985639 -15.5625 240.4375 C-9.40979295 242.87097918 -3.57292618 245.06101055 3 246 C3 246.66 3 247.32 3 248 C4.051875 247.814375 5.10375 247.62875 6.1875 247.4375 C9.72503088 247.03155383 11.60761988 247.3074727 15 248 C36.08053956 249.21672913 53.21275957 242.57956005 71.0625 232.125 C72.1863208 231.47168701 73.3101416 230.81837402 74.46801758 230.14526367 C77.39760738 228.44204966 80.32396904 226.73337307 83.24938965 225.02301025 C86.09445205 223.36043125 88.94190027 221.70194843 91.7890625 220.04296875 C95.85456964 217.67347713 99.91820014 215.30081971 103.98046875 212.92578125 C105.28056885 212.17482178 105.28056885 212.17482178 106.60693359 211.40869141 C108.11768673 210.51937845 109.61307337 209.60291688 111.08447266 208.64990234 C112.92578125 207.48046875 112.92578125 207.48046875 116 206 C119.86487411 207.16731327 121.10307475 209.37286816 122.9609375 212.8203125 C123.5087085 213.81981934 124.05647949 214.81932617 124.62084961 215.84912109 C125.19971924 216.93016113 125.77858887 218.01120117 126.375 219.125 C127.61089129 221.3919296 128.84924353 223.65751898 130.08984375 225.921875 C130.4069783 226.50282928 130.72411285 227.08378357 131.05085754 227.68234253 C133.30992837 231.80205199 135.66135185 235.85425093 138.06640625 239.890625 C138.71496582 240.97972168 139.36352539 242.06881836 140.03173828 243.19091797 C141.28699643 245.2881607 142.54952542 247.38107136 143.81982422 249.46923828 C144.38330566 250.41524902 144.94678711 251.36125977 145.52734375 252.3359375 C146.02999756 253.16657715 146.53265137 253.9972168 147.05053711 254.85302734 C148 257 148 257 147 260 C144.72875977 261.57128906 144.72875977 261.57128906 141.69140625 263.265625 C139.99963257 264.21949097 139.99963257 264.21949097 138.27368164 265.19262695 C137.03665419 265.87847766 135.79959284 266.56426725 134.5625 267.25 C133.30207333 267.95754584 132.04223233 268.66613595 130.78295898 269.37573242 C128.83220103 270.4746472 126.88101651 271.57273622 124.9278717 272.66740417 C118.10571674 276.49102853 111.33225302 280.39706569 104.5625 284.3125 C103.47461182 284.93995117 102.38672363 285.56740234 101.26586914 286.21386719 C95.76895921 289.37725442 95.76895921 289.37725442 90.32958984 292.63769531 C87.90579176 294.05509138 85.77487706 294.74762211 83.0625 295.4375 C79.83191263 296.34625138 77.83556208 297.10962528 75 299 C68.44202831 303.37198112 60.0464947 304.5352474 52.46875 306.3515625 C50.02005084 306.90442434 50.02005084 306.90442434 48 308 C46 308 44 308 42 308 C41.67 308.33 41.34 308.66 41 309 C39.37626867 309 37.75242556 308.9949887 36.12890625 308.96875 C33.8851907 309.00168527 31.72755716 309.23224689 29.5 309.5 C18.09928084 310.69370201 7.24896018 309.97256648 -4 308 C-6.60289985 307.6163056 -9.20708454 307.24122306 -11.8125 306.875 C-12.99457031 306.70742188 -14.17664063 306.53984375 -15.39453125 306.3671875 C-16.25433594 306.24601562 -17.11414063 306.12484375 -18 306 C-18 305.34 -18 304.68 -18 304 C-19.14597656 303.89171875 -20.29195313 303.7834375 -21.47265625 303.671875 C-26.03162097 303.0981175 -30.1328251 301.81947908 -34.4375 300.25 C-35.54847046 299.85228394 -35.54847046 299.85228394 -36.68188477 299.4465332 C-42.10417037 297.45342219 -47.09725062 295.06880323 -52 292 C-52.66 291.67 -53.32 291.34 -54 291 C-54 290.34 -54 289.68 -54 289 C-54.69867188 288.91621094 -55.39734375 288.83242188 -56.1171875 288.74609375 C-59.70293491 287.81807511 -62.08587879 286.16855768 -65.125 284.0625 C-66.67574219 282.99708984 -66.67574219 282.99708984 -68.2578125 281.91015625 C-69.16273438 281.27980469 -70.06765625 280.64945313 -71 280 C-71.99 279.34 -72.98 278.68 -74 278 C-74 277.34 -74 276.68 -74 276 C-74.721875 275.773125 -75.44375 275.54625 -76.1875 275.3125 C-79.56432417 273.73664872 -81.55767039 271.79123384 -84 269 C-84 268.34 -84 267.68 -84 267 C-84.99 266.67 -85.98 266.34 -87 266 C-88.37073786 264.36395804 -89.70055256 262.69321939 -91 261 C-91.66 260.34 -92.32 259.68 -93 259 C-95.20907853 256.79092147 -97.14684578 254.51499501 -99 252 C-99 251.34 -99 250.68 -99 250 C-99.99 249.67 -100.98 249.34 -102 249 C-103.54638672 246.75024414 -103.54638672 246.75024414 -105.1796875 243.78515625 C-106.07880859 242.16577148 -106.07880859 242.16577148 -106.99609375 240.51367188 C-107.61613281 239.37478516 -108.23617187 238.23589844 -108.875 237.0625 C-109.48730469 235.95841797 -110.09960938 234.85433594 -110.73046875 233.71679688 C-112.51062627 230.49002312 -114.26219742 227.24975449 -116 224 C-116.483479 223.10385986 -116.96695801 222.20771973 -117.46508789 221.28442383 C-120.31444324 215.83221549 -122.24168135 210.53484318 -123.6875 204.5625 C-123.89536133 203.73991699 -124.10322266 202.91733398 -124.31738281 202.06982422 C-125.80411692 196.08636738 -127.01761933 190.08648893 -128 184 C-128.16886719 183.17371094 -128.33773437 182.34742188 -128.51171875 181.49609375 C-132.47324181 161.24478785 -130.74270988 138.43486965 -124 119 C-123.53878389 117.417504 -123.08076054 115.83407582 -122.625 114.25 C-121.07229118 109.02438607 -119.08832165 104.0305724 -117 99 C-116.3313253 97.33413795 -115.66412136 95.66768253 -115 94 C-114.34 94 -113.68 94 -113 94 C-112.01 91.03 -111.02 88.06 -110 85 C-109.34 85 -108.68 85 -108 85 C-107.87625 84.236875 -107.7525 83.47375 -107.625 82.6875 C-107 80 -107 80 -105 77 C-104.34 77 -103.68 77 -103 77 C-102.855625 76.38125 -102.71125 75.7625 -102.5625 75.125 C-102 73 -102 73 -101 71 C-100.34 71 -99.68 71 -99 71 C-98.773125 70.0925 -98.54625 69.185 -98.3125 68.25 C-96.80810262 64.52482554 -95.33165227 63.16557398 -92 61 C-91.34 61 -90.68 61 -90 61 C-89.34 59.35 -88.68 57.7 -88 56 C-87.34 56 -86.68 56 -86 56 C-85.7525 55.401875 -85.505 54.80375 -85.25 54.1875 C-83.81927475 51.68373081 -82.4308418 50.51927612 -80 49 C-79.34 49 -78.68 49 -78 49 C-77.67 48.01 -77.34 47.02 -77 46 C-75.66666667 45.33333333 -74.33333333 44.66666667 -73 44 C-72.278125 43.2575 -71.55625 42.515 -70.8125 41.75 C-64.12892914 35.21495293 -55.56869213 30.97263605 -47.4375 26.5 C-38.55100678 21.56807932 -29.71445585 16.56201036 -20.9375 11.4375 C-19.4678479 10.58091797 -19.4678479 10.58091797 -17.96850586 9.70703125 C-13.09880079 6.85655456 -8.28333024 3.95673129 -3.56079102 0.86743164 C-2 0 -2 0 0 0 Z " fill="#FDA01A" transform="translate(295,271)"/>
<path d="M0 0 C2.47218166 1.88087023 3.53233872 3.78513021 5.00927734 6.51782227 C5.57727051 7.55310059 6.14526367 8.58837891 6.73046875 9.6550293 C7.32520996 10.76346191 7.91995117 11.87189453 8.53271484 13.01391602 C9.78124148 15.2946711 11.03124849 17.5746164 12.28271484 19.85375977 C12.89630859 20.97637207 13.50990234 22.09898437 14.14208984 23.25561523 C16.52884427 27.57566715 19.01079442 31.83420987 21.53271484 36.07641602 C21.92152832 36.7306958 22.3103418 37.38497559 22.7109375 38.05908203 C23.07751465 38.67581787 23.4440918 39.29255371 23.82177734 39.92797852 C24.51728639 41.1023413 25.21259916 42.27682035 25.90771484 43.45141602 C26.29024414 44.09175781 26.67277344 44.73209961 27.06689453 45.3918457 C29.90771484 50.22447693 29.90771484 50.22447693 29.90771484 52.45141602 C27.26579589 53.97560003 24.62387299 55.4997772 21.98193359 57.02392578 C19.65895197 58.36414543 17.33602567 59.70446044 15.01318359 61.04492188 C9.5118321 64.2194562 4.01009356 67.39330365 -1.49453735 70.56214905 C-3.24033342 71.56719669 -4.98591966 72.5726078 -6.73144531 73.578125 C-8.91560314 74.83616564 -11.10015183 76.09352798 -13.28515625 77.35009766 C-18.95219317 80.6153645 -24.57344171 83.93441515 -30.13134766 87.3828125 C-32.09228516 88.45141602 -32.09228516 88.45141602 -34.09228516 88.45141602 C-30.54409418 95.93723357 -26.61976672 103.09190874 -22.38842773 110.20532227 C-18.50456726 116.73466996 -14.69593726 123.30533778 -10.90478516 129.88891602 C-9.9487439 131.54818115 -9.9487439 131.54818115 -8.97338867 133.2409668 C-7.664661 135.51265267 -6.35615031 137.78446356 -5.04785156 140.05639648 C-1.89896462 145.52311581 1.25454748 150.98716489 4.40771484 156.45141602 C5.65773834 158.61806912 6.90773831 160.78473581 8.15771484 162.95141602 C8.77646484 164.02391602 9.39521484 165.09641602 10.03271484 166.20141602 C30.65771484 201.95141601 30.65771484 201.95141601 32.53295898 205.2019043 C33.78207002 207.36698672 35.03125614 209.53202584 36.28051758 211.69702148 C39.41973794 217.13757307 42.55762047 222.57888817 45.69287109 228.02172852 C51.77593038 238.57873419 57.87821842 249.12337721 64.03271484 259.63891602 C70.78152629 271.17345785 77.36728872 282.7976854 83.90771484 294.45141602 C79.52228282 299.49512642 74.29704403 302.28305947 68.47021484 305.45141602 C62.13111961 308.94122265 55.83351855 312.45436722 49.67724609 316.26000977 C48.68716553 316.86780273 47.69708496 317.4755957 46.67700195 318.10180664 C44.77697832 319.27499711 42.88547162 320.46211752 41.00366211 321.66430664 C40.14442139 322.19088867 39.28518066 322.7174707 38.39990234 323.26000977 C37.6507959 323.73237061 36.90168945 324.20473145 36.12988281 324.69140625 C33.90771484 325.45141602 33.90771484 325.45141602 31.25976562 324.78369141 C26.71712334 322.21059623 25.22602756 317.36242436 23.55615234 312.67016602 C22.01167399 308.50458038 19.971828 304.85665441 17.65771484 301.07641602 C16.75929559 299.57848736 15.86225062 298.07973391 14.96630859 296.58032227 C14.47759277 295.76450684 13.98887695 294.94869141 13.48535156 294.1081543 C10.51451742 289.10527328 7.62196234 284.05707209 4.72021484 279.01391602 C3.42466002 276.76520768 2.12908687 274.51650989 0.83349609 272.26782227 C0.1833252 271.13876465 -0.4668457 270.00970703 -1.13671875 268.84643555 C-4.28560569 263.37971622 -7.43911779 257.91566715 -10.59228516 252.45141602 C-11.84230866 250.28476291 -13.09230862 248.11809622 -14.34228516 245.95141602 C-14.96103516 244.87891602 -15.57978516 243.80641602 -16.21728516 242.70141602 C-51.84228516 180.95141602 -51.84228516 180.95141602 -53.72021484 177.69628906 C-54.96039277 175.54667967 -56.20062642 173.39710243 -57.44091797 171.24755859 C-60.36578745 166.1783239 -63.29009349 161.10876665 -66.21240234 156.03805542 C-67.59035453 153.64715004 -68.96862688 151.2564293 -70.34692383 148.86572266 C-71.31769498 147.18157638 -72.2880039 145.4971637 -73.25830078 143.81274414 C-73.84804688 142.78987305 -74.43779297 141.76700195 -75.04541016 140.71313477 C-75.56264648 139.81554443 -76.07988281 138.9179541 -76.61279297 137.99316406 C-77.6405474 136.22749551 -78.69968598 134.47987296 -79.78271484 132.74755859 C-81.09228516 130.45141602 -81.09228516 130.45141602 -81.09228516 128.45141602 C-82.08228516 128.12141602 -83.07228516 127.79141602 -84.09228516 127.45141602 C-85.4894079 125.49544418 -86.83008423 123.497052 -88.09228516 121.45141602 C-95.99773773 125.29528033 -103.65675992 129.40769468 -111.21728516 133.88891602 C-113.29783649 135.10927134 -115.37857276 136.32931141 -117.45947266 137.54907227 C-120.86269919 139.54967965 -124.26445068 141.55273499 -127.66357422 143.56030273 C-130.64204625 145.31864909 -133.62558798 147.06812457 -136.61224365 148.81253052 C-138.31654893 149.81133338 -140.01526028 150.81966171 -141.71386719 151.828125 C-142.75140137 152.43342041 -143.78893555 153.03871582 -144.85791016 153.66235352 C-145.7734668 154.20166504 -146.68902344 154.74097656 -147.63232422 155.29663086 C-150.09228516 156.45141602 -150.09228516 156.45141602 -154.09228516 156.45141602 C-154.50889404 155.71842285 -154.92550293 154.98542969 -155.35473633 154.23022461 C-156.96516667 151.398888 -158.57737518 148.56857652 -160.19049072 145.73876953 C-160.91514895 144.46656739 -161.63906999 143.19394505 -162.36224365 141.92089844 C-166.19671164 135.17140948 -170.05902213 128.45128899 -174.11962891 121.83422852 C-175.0328894 120.33690186 -175.0328894 120.33690186 -175.96459961 118.80932617 C-177.11501265 116.93347508 -178.27854667 115.06559516 -179.45629883 113.20678711 C-180.223573 111.95115967 -180.223573 111.95115967 -181.00634766 110.67016602 C-181.68624756 109.58638672 -181.68624756 109.58638672 -182.37988281 108.48071289 C-183.09228516 106.45141602 -183.09228516 106.45141602 -182.56054688 104.39794922 C-180.60274794 101.80241698 -178.52826649 100.66702459 -175.68603516 99.08813477 C-174.56310059 98.45641357 -173.44016602 97.82469238 -172.28320312 97.17382812 C-171.05292343 96.4954764 -169.82261672 95.81717367 -168.59228516 95.13891602 C-167.32093279 94.42732352 -166.05027103 93.71449587 -164.78027344 93.00048828 C-162.16411596 91.53034232 -159.54552101 90.06468391 -156.92529297 88.60180664 C-151.24014317 85.42063065 -145.60436201 82.15428535 -139.96728516 78.88891602 C-137.81896197 77.64783271 -135.67052432 76.4069475 -133.52197266 75.16625977 C-132.46204102 74.55379395 -131.40210938 73.94132812 -130.31005859 73.31030273 C-124.9055787 70.18816997 -119.49881103 67.07000397 -114.09228516 63.95141602 C-111.92560765 62.7014348 -109.75894098 61.45143481 -107.59228516 60.20141602 C-94.59228516 52.70141602 -94.59228516 52.70141602 -91.34179688 50.82617188 C-89.17671445 49.57706083 -87.01167533 48.32787472 -84.84667969 47.07861328 C-79.4061281 43.93939292 -73.964813 40.80151039 -68.52197266 37.66625977 C-58.96740666 32.16081692 -49.41643425 26.65045683 -39.90039062 21.07861328 C-35.97168674 18.78062569 -32.03601726 16.49469366 -28.10058594 14.20825195 C-24.93197046 12.35779286 -21.77618764 10.48641739 -18.61962891 8.61547852 C-16.52762339 7.39336673 -14.43518972 6.1719875 -12.34228516 4.95141602 C-11.37137939 4.36859863 -10.40047363 3.78578125 -9.40014648 3.18530273 C-8.048927 2.40437256 -8.048927 2.40437256 -6.67041016 1.60766602 C-5.88053711 1.14166992 -5.09066406 0.67567383 -4.27685547 0.19555664 C-2.09228516 -0.54858398 -2.09228516 -0.54858398 0 0 Z " fill="#FCB51A" transform="translate(552.09228515625,308.548583984375)"/>
</svg>
