<?xml version="1.0" encoding="UTF-8"?>
<svg version="1.1" xmlns="http://www.w3.org/2000/svg" width="182" height="183">
<path d="M0 0 C21.00043584 18.31884172 31.30711476 39.76079264 33.6328125 67.15234375 C34.32038776 88.23798517 26.07364871 108.54052916 11.86401367 123.89599609 C-3.04751651 139.32110365 -23.13336258 146.46996542 -44.3984375 147.21484375 C-56.18705517 147.01923616 -67.47039807 143.80965534 -77.6484375 137.83984375 C-77.9784375 138.16984375 -78.3084375 138.49984375 -78.6484375 138.83984375 C-68.4809532 144.41032717 -58.31304802 148.13914276 -46.6484375 148.83984375 C-45.69195312 148.90429688 -44.73546875 148.96875 -43.75 149.03515625 C-34.60511929 149.35490732 -26.30229516 147.78188191 -17.41015625 145.8125 C-12.83826654 144.81861093 -8.30453635 144.28350412 -3.6484375 143.83984375 C-7.74359944 152.76616447 -16.94177386 155.60042229 -25.53515625 158.97265625 C-45.8286353 166.28806258 -70.0301763 166.36270392 -89.8515625 157.3359375 C-107.19552749 148.05836963 -120.59779774 132.596827 -126.6484375 113.83984375 C-127.40310481 111.18115948 -128.04849446 108.53958743 -128.6484375 105.83984375 C-128.4573523 113.06633854 -126.70725225 119.43619738 -124.3762207 126.21679688 C-123.14267273 129.8782877 -122.3563087 132.96726447 -122.6484375 136.83984375 C-127.186964 134.56653547 -129.75873627 131.49918314 -132.5859375 127.40234375 C-133.0205127 126.77980713 -133.45508789 126.15727051 -133.90283203 125.51586914 C-146.15634488 107.60074997 -151.39438597 87.08970864 -148.31591797 65.50878906 C-147.04448448 59.17666724 -144.87750201 53.25540158 -142.3359375 47.33984375 C-140.10273426 41.94661379 -140.76906804 38.46029411 -142.62109375 32.94140625 C-146.0584574 22.56771379 -147.67415108 14.43289593 -142.9609375 4.21484375 C-141.22847093 0.80363049 -140.39669047 -0.79088855 -136.94140625 -2.49609375 C-136.18472656 -2.71523438 -135.42804688 -2.934375 -134.6484375 -3.16015625 C-134.34550781 -2.66386719 -134.04257813 -2.16757812 -133.73046875 -1.65625 C-132.84884687 -0.22666622 -131.95608526 1.19608366 -131.0546875 2.61328125 C-130.1937458 3.97643894 -129.35459819 5.35406255 -128.5546875 6.75390625 C-124.10244151 13.97290511 -116.82899724 16.46971754 -108.859375 18.359375 C-100.18841226 20.29374208 -91.41941704 21.11750674 -82.59228516 21.99389648 C-50.37794818 25.23847994 -50.37794818 25.23847994 -41.2734375 35.27734375 C-37.05577537 40.68695387 -35.99072497 45.04348091 -36.6484375 51.83984375 C-39.9877503 55.40945399 -43.97925463 56.05267392 -48.7109375 56.27734375 C-54.35372762 56.25495173 -57.70595231 54.54984183 -62.26171875 51.34765625 C-67.51882184 48.02647492 -72.26178057 47.58564096 -78.3984375 47.65234375 C-79.71328125 47.65878906 -81.028125 47.66523437 -82.3828125 47.671875 C-85.53316933 47.61526021 -85.53316933 47.61526021 -87.6484375 48.83984375 C-86.875 48.75863281 -86.1015625 48.67742187 -85.3046875 48.59375 C-76.91992695 48.08526823 -76.91992695 48.08526823 -73.140625 50.328125 C-71.17555094 52.07928878 -69.3889023 53.86731697 -67.6484375 55.83984375 C-65.85577721 58.05239908 -65.85577721 58.05239908 -63.44140625 58.0703125 C-62.58160156 58.05613281 -61.72179687 58.04195313 -60.8359375 58.02734375 C-59.98386719 58.02089844 -59.13179688 58.01445313 -58.25390625 58.0078125 C-55.67872263 57.9051951 -55.67872263 57.9051951 -53.32421875 57.34375 C-49.76676124 56.67380545 -46.25523082 56.61646215 -42.6484375 56.58984375 C-41.94976562 56.56921875 -41.25109375 56.54859375 -40.53125 56.52734375 C-36.01651533 56.49327028 -33.24300054 57.09144609 -29.6484375 59.83984375 C-25.78081706 64.0297659 -24.85854003 66.61275695 -24.3359375 72.15234375 C-24.80744201 77.71609699 -27.23403182 81.01480417 -30.5859375 85.33984375 C-32.6484375 86.83984375 -32.6484375 86.83984375 -35.125 86.703125 C-37.6484375 85.83984375 -37.6484375 85.83984375 -39.01953125 83.9140625 C-39.37144531 83.12644531 -39.72335938 82.33882813 -40.0859375 81.52734375 C-42.30810372 77.19996743 -44.10202417 74.93818836 -48.6484375 72.83984375 C-54.92795042 71.19821606 -58.95687131 71.88022933 -64.6484375 74.83984375 C-66.1334375 75.33484375 -66.1334375 75.33484375 -67.6484375 75.83984375 C-70.95262661 81.08767351 -72.17720941 86.70608962 -71.6484375 92.83984375 C-70.01048142 99.80459818 -66.4654978 105.28822192 -60.4921875 109.28125 C-48.370306 115.87350699 -35.79626737 117.39828676 -22.59765625 113.8046875 C-10.79788869 109.94436619 -1.49214141 101.45671389 4.81640625 90.8828125 C12.57806314 75.49774705 15.23895972 58.20107776 10.25390625 41.5 C9.95613281 40.62214844 9.65835938 39.74429688 9.3515625 38.83984375 C9.08472656 37.99292969 8.81789062 37.14601562 8.54296875 36.2734375 C6.06076607 29.22398188 1.94086107 23.67584154 -2.6484375 17.83984375 C-3.09703125 17.21335938 -3.545625 16.586875 -4.0078125 15.94140625 C-14.68579088 1.90184208 -36.52619747 -8.77004813 -53.6484375 -11.16015625 C-71.03812033 -12.27793354 -85.58008179 -8.35660969 -101.60644531 -1.80273438 C-102.45045898 -1.46177734 -103.29447266 -1.12082031 -104.1640625 -0.76953125 C-104.90946289 -0.45983398 -105.65486328 -0.15013672 -106.42285156 0.16894531 C-108.9265195 0.92367101 -111.04767913 0.95769598 -113.6484375 0.83984375 C-113.08339503 -2.45859169 -112.29212004 -3.9249825 -109.6484375 -5.97265625 C-78.02002037 -28.26531519 -29.18877982 -23.80736761 0 0 Z " fill="#000000" transform="translate(148.6484375,19.16015625)"/>
</svg>
